<svg width="210" height="64" viewBox="0 0 210 64" fill="none" xmlns="http://www.w3.org/2000/svg">
<g opacity="0.71">
<path opacity="0.71" d="M0 53.6948H1.3601V63.2343H0V53.6948Z" fill="#505050"/>
<path opacity="0.71" d="M14.009 53.6936L20.4015 60.5075C20.8776 60.9845 20.9456 61.1208 21.4216 61.6659C21.3536 60.9845 21.3536 60.8482 21.3536 60.235V53.6255H22.6457V63.165H21.3536L14.6211 56.0104C14.2811 55.6015 14.145 55.4652 13.873 55.1246C13.941 55.8059 13.941 56.0104 13.941 56.7599V63.165H12.6489V53.6255H14.009V53.6936Z" fill="#505050"/>
<path opacity="0.71" d="M32.3706 53.6938H41.4833V54.8522H37.607V63.2333H36.2469V54.7841H32.3706V53.6938Z" fill="#505050"/>
<path opacity="0.71" d="M70.8608 53.6938H72.2209V62.075H78.5454V63.2333H70.8608V53.6938Z" fill="#505050"/>
<path opacity="0.71" d="M88.271 53.6938H89.6311V62.075H95.9556V63.2333H88.271V53.6938Z" fill="#505050"/>
<path opacity="0.71" d="M105.612 53.6938H106.972V63.2333H105.612V53.6938Z" fill="#505050"/>
<path opacity="0.71" d="M127.034 61.9388C126.83 62.0751 126.694 62.2795 126.49 62.4157C125.81 62.9609 124.45 63.4378 122.886 63.4378C119.621 63.4378 117.445 61.1211 117.445 58.3955C117.445 57.0328 117.989 56.0788 118.261 55.67C119.145 54.3753 120.914 53.4214 123.09 53.4214C125.266 53.4214 126.694 54.3072 127.238 54.7842C127.782 55.2611 127.986 55.6018 128.19 55.9425L126.83 56.3514C126.626 56.0788 126.49 55.8744 126.218 55.6018C125.402 54.9204 124.314 54.5797 123.226 54.5797C120.846 54.5797 118.873 55.8744 118.873 58.3274C118.873 59.2813 119.213 60.099 119.553 60.576C120.574 62.2113 122.614 62.3476 123.226 62.3476C124.11 62.3476 125.47 62.075 126.354 61.1211C126.966 60.4397 127.034 59.9627 127.102 59.4176H122.886V58.2593H128.19V63.3016H127.034V61.9388Z" fill="#505050"/>
<path opacity="0.71" d="M160.22 53.6936L166.612 60.5075C167.088 60.9845 167.156 61.1208 167.633 61.6659C167.565 60.9845 167.565 60.8482 167.565 60.235V53.6255H168.857V63.165H167.565L160.832 56.0104C160.492 55.6015 160.356 55.4652 160.084 55.1246C160.152 55.8059 160.152 56.0104 160.152 56.7599V63.165H158.86V53.6255H160.22V53.6936Z" fill="#505050"/>
<path opacity="0.71" d="M190.686 60.5758C190.346 61.2572 189.938 61.8704 188.986 62.4837C187.83 63.2332 186.266 63.4376 185.178 63.4376C181.302 63.4376 179.397 61.189 179.397 58.3953C179.397 56.1467 180.486 55.1246 181.166 54.5795C181.574 54.2388 182.73 53.353 185.178 53.353C185.858 53.353 187.558 53.4212 188.782 54.2388C189.802 54.8521 190.278 55.6698 190.55 56.0786L189.122 56.4193C188.918 56.0105 188.646 55.6016 188.102 55.2609C187.49 54.8521 186.47 54.5114 185.314 54.5114C183.07 54.5114 180.962 55.6016 180.962 58.259C180.962 59.213 181.234 60.1669 181.914 60.9846C182.594 61.666 183.682 62.2111 185.382 62.2111C186.878 62.2111 187.83 61.8704 188.442 61.3934C188.986 60.9846 189.258 60.5076 189.394 60.2351L190.686 60.5758Z" fill="#505050"/>
<g opacity="0.71">
<path opacity="0.71" d="M59.8445 57.7139H51.2759V58.8722L59.8445 58.8041V57.7139Z" fill="#505050"/>
<path opacity="0.71" d="M60.05 53.6938H51.2773V54.8522H60.05V53.6938Z" fill="#505050"/>
<path opacity="0.71" d="M51.2759 62.0747V63.2331H60.3886V62.0747H51.2759Z" fill="#505050"/>
</g>
<g opacity="0.71">
<path opacity="0.71" d="M147.843 57.7139H139.207V58.8722L147.843 58.8041V57.7139Z" fill="#505050"/>
<path opacity="0.71" d="M147.979 53.6938H139.207V54.8522H147.979V53.6938Z" fill="#505050"/>
<path opacity="0.71" d="M139.207 62.0747V63.2331H148.387V62.0747H139.207Z" fill="#505050"/>
</g>
<g opacity="0.71">
<path opacity="0.71" d="M209.456 57.7139H200.887V58.8722L209.456 58.8041V57.7139Z" fill="#505050"/>
<path opacity="0.71" d="M209.66 53.6938H200.888V54.8522H209.66V53.6938Z" fill="#505050"/>
<path opacity="0.71" d="M200.887 62.0747V63.2331H210V62.0747H200.887Z" fill="#505050"/>
</g>
</g>
<path d="M58.0083 41.1559V1.1582H63.5167V36.9994H83.2382V41.1559H58.0083Z" fill="#505050"/>
<path d="M102.484 41.1559V1.1582H107.992V41.1559H102.484Z" fill="#505050"/>
<path d="M22.3057 0H16.4573L0 41.156H5.91645L19.3815 6.47321L22.3057 0Z" fill="#505050"/>
<path opacity="0.7" d="M24.0739 4.29297L21.0137 10.6299L32.8466 41.1562H38.763L24.0739 4.29297Z" fill="#505050"/>
<path opacity="0.7" d="M151.379 4.56543L148.319 10.9024L160.084 41.1561H165.932L151.379 4.56543Z" fill="#505050"/>
<path d="M146.687 6.67763L149.611 0.136278L149.543 0H143.695L127.169 41.156H133.086L146.619 6.47321L146.687 6.67763Z" fill="#505050"/>
<path d="M206.192 23.5083C204.56 22.2136 202.247 20.919 199.255 19.4199C190.279 15.1272 188.374 13.6281 188.374 10.63C188.374 9.33536 188.85 8.17699 189.803 7.29119C187.626 6.95049 185.382 7.01863 183.274 7.76816C182.866 8.79025 182.662 9.88047 182.662 11.0388C182.662 15.1272 185.45 18.3297 192.115 21.5323C196.263 23.5764 198.711 24.7348 199.459 25.0755C201.227 25.9613 202.452 27.1197 203.2 28.3462C203.676 29.0957 203.88 30.0496 203.88 31.208C203.88 35.0238 200.751 37.2724 195.515 37.2724C193.271 37.2724 191.095 36.9317 189.122 36.2503C187.558 35.7052 186.538 35.1601 184.022 33.661L181.234 37.6131C184.09 39.3847 185.246 39.998 186.946 40.6112C189.258 41.4289 192.115 41.974 195.107 41.974C204.016 41.974 209.66 37.6812 209.66 30.7992C209.592 27.8692 208.368 25.1436 206.192 23.5083Z" fill="#505050"/>
<path opacity="0.7" d="M199.323 5.17865C200.547 5.31493 201.907 5.58749 202.859 5.86004C204.287 6.26888 205.171 6.67771 207.484 7.90422L210 3.81587C207.552 2.45309 206.463 1.97611 204.627 1.431C202.383 0.749607 199.731 0.477051 197.215 0.477051C191.094 0.477051 186.402 2.52122 184.158 5.92818C188.306 3.95215 194.086 4.02029 199.323 5.17865Z" fill="#505050"/>
</svg>
