<svg width="36" height="33" viewBox="0 0 36 33" fill="none" xmlns="http://www.w3.org/2000/svg">
<path d="M28.3997 0C27.8786 0 27.5312 0.347826 27.5312 0.869565C27.5312 1.3913 27.8786 1.73913 28.3997 1.73913H33.3501V6.69565C33.3501 7.21739 33.6975 7.56522 34.2186 7.56522C34.7397 7.56522 35.0871 7.21739 35.0871 6.69565V0H28.3997Z" fill="#505050"/>
<path d="M6.68734 30.2607H1.73697V25.3041C1.73697 24.7824 1.38958 24.4346 0.868486 24.4346C0.347395 24.4346 0 24.7824 0 25.3041V31.9998H6.68734C7.20844 31.9998 7.55583 31.652 7.55583 31.1302C7.55583 30.6085 7.12159 30.2607 6.68734 30.2607Z" fill="#505050"/>
<path d="M34.1317 24.522C33.6106 24.522 33.2632 24.8698 33.2632 25.3915V30.3481H28.3128C27.7917 30.3481 27.4443 30.6959 27.4443 31.2176C27.4443 31.7394 27.7917 32.0872 28.3128 32.0872H35.0002V25.3915C35.0002 24.8698 34.6528 24.522 34.1317 24.522Z" fill="#505050"/>
<path d="M0.868486 7.56522C1.38958 7.56522 1.73697 7.21739 1.73697 6.69565V1.73913H6.68734C7.20844 1.73913 7.55583 1.3913 7.55583 0.869565C7.55583 0.347826 7.20844 0 6.68734 0H0V6.69565C0 7.13043 0.347395 7.56522 0.868486 7.56522Z" fill="#505050"/>
<path d="M24.5782 17.7389C23.6228 16.3476 22.4069 15.3041 20.9305 14.5215C20.9305 14.4346 20.9305 14.4346 20.9305 14.4346C21.0174 14.3476 21.0174 14.2606 21.1042 14.2606C22.7543 12.5215 23.1886 10.4346 22.4938 8.08673C21.7122 5.47803 19.1067 3.82586 16.6749 4.3476C13.8089 4.95629 11.8983 8.08673 12.5062 11.1302C12.7667 12.4346 13.3747 13.478 14.33 14.4346C14.2432 14.5215 14.1563 14.5215 14.1563 14.6085C12.072 15.6519 10.6824 17.2172 9.72705 19.3041C8.85856 21.3041 8.85856 23.3041 8.94541 25.3911C8.94541 25.9128 9.2928 26.1737 9.90074 26.1737C15.0248 26.1737 20.1489 26.1737 25.273 26.1737C25.8809 26.1737 26.2283 25.8259 26.2283 25.2172C26.2283 24.5215 26.2283 23.8259 26.2283 23.0432C26.2283 21.2172 25.7072 19.3911 24.5782 17.7389ZM14.4169 11.3041C13.7221 9.1302 14.938 6.86933 17.0223 6.3476C18.4988 5.99977 20.1489 6.86933 20.8437 8.43455C21.1042 8.95629 21.1042 9.56499 21.2779 10.0867C21.1911 11.9998 19.8883 13.565 18.2382 13.8259C16.5012 14.0867 14.938 13.0432 14.4169 11.3041ZM10.6824 24.3476C10.5955 21.2172 11.464 18.6085 14.0695 16.8693C16.3275 15.3911 18.6725 15.3041 21.0174 16.7824C23.7965 18.5215 24.665 21.2172 24.5782 24.3476C19.9752 24.3476 15.3722 24.3476 10.6824 24.3476Z" fill="#505050"/>
<path d="M29.7891 22.4347C29.7891 21.913 29.7891 21.3912 29.7891 20.8695C29.7023 18.8695 29.0943 17.0434 27.7048 15.5651C27.2705 15.0434 26.6626 14.6956 26.1415 14.1738C27.4442 12.3477 27.6179 10.4347 26.4889 8.4347C25.7072 7.04339 24.4045 6.26078 22.7544 6.17383C23.1018 6.86948 23.3623 7.47818 23.6229 8.08687C23.7097 8.17383 23.8834 8.34774 23.9703 8.34774C25.0125 8.95644 25.4467 9.826 25.4467 10.9564C25.4467 11.9999 25.0125 12.9564 24.0571 13.4782C23.6229 13.739 23.2755 13.9999 23.3623 14.5217C23.4492 15.1304 23.7966 15.3043 24.3177 15.3912C27.2705 16.3477 28.3127 19.5651 27.9653 21.3912C27.7048 21.3912 27.4442 21.3912 27.1837 21.4782C27.2705 22.0869 27.2705 22.6956 27.3574 23.3043C27.7916 23.3043 28.2259 23.3043 28.6601 23.3043C29.4417 23.3912 29.7023 23.1304 29.7891 22.4347Z" fill="#505050"/>
<path d="M11.0299 15.4783C11.4641 15.3044 11.8984 15.1304 11.9852 14.6087C12.0721 14.087 11.7247 13.7391 11.2904 13.5652C10.3351 13.0435 9.90086 12.087 9.90086 10.9565C9.90086 9.82609 10.422 8.95653 11.3773 8.34783C11.4641 8.26088 11.6378 8.17392 11.7247 8.08696C12.0721 7.47827 12.3326 6.86957 12.5932 6.26087C11.2904 6.08696 9.72716 6.95653 8.94553 8.26087C7.72965 10.2609 7.90334 12.2609 9.20607 14.1739C8.94553 14.3478 8.59813 14.6087 8.33759 14.7826C5.81898 16.7826 5.29788 19.5652 5.55843 22.6087C5.55843 23.0435 5.81898 23.3044 6.25322 23.3913C6.77431 23.3913 7.2954 23.3913 7.81649 23.3913C7.90334 22.7826 7.90334 22.1739 7.99019 21.5652C7.72965 21.5652 7.4691 21.5652 7.20855 21.5652C6.94801 18.8696 8.59813 16.2609 11.0299 15.4783Z" fill="#505050"/>
</svg>
