<svg width="35" height="33" viewBox="0 0 35 33" fill="none" xmlns="http://www.w3.org/2000/svg">
<path d="M29.0221 26.1848V25.312V24.09V21.6461C29.0221 20.5987 28.7622 19.6385 28.2424 18.7657C27.9825 18.242 27.5493 17.8929 27.2028 17.5437C26.0765 16.6709 23.8241 15.3617 22.6112 14.6634C23.3043 13.4414 23.7374 11.8703 23.7374 10.2992C23.7374 6.10962 20.9652 2.70557 17.4998 2.70557C14.0345 2.70557 11.2622 6.10962 11.2622 10.2992C11.2622 11.9576 11.6954 13.4414 12.3884 14.6634C11.1756 15.3617 8.92308 16.6709 7.79684 17.5437C7.36368 17.8929 7.01714 18.3293 6.75724 18.7657C6.23744 19.5513 5.97754 20.5987 5.97754 21.6461V26.1848H26.8562H28.0691H29.0221ZM17.4998 4.36395C20.0122 4.36395 22.0048 6.98245 22.0048 10.2119C22.0048 13.4414 20.0122 16.0599 17.4998 16.0599C14.9874 16.0599 12.9949 13.4414 12.9949 10.2119C12.9949 6.98245 14.9874 4.36395 17.4998 4.36395ZM27.2894 24.09V24.4391H26.8562H7.62358V21.6461C7.62358 20.9478 7.79684 20.2495 8.14338 19.7258C8.31665 19.3767 8.57655 19.1148 8.83645 18.9403C9.87605 18.0674 12.3018 16.6709 13.428 16.0599C14.5543 17.1946 15.9404 17.8929 17.4132 17.8929C18.9726 17.8929 20.3587 17.1946 21.3983 16.0599C22.5246 16.6709 24.8637 18.0674 25.9899 18.9403C26.2498 19.1148 26.5097 19.464 26.683 19.7258C27.0295 20.2495 27.2028 20.9478 27.2028 21.6461V24.09H27.2894Z" fill="#515151"/>
<path d="M28.3292 0C27.8094 0 27.4629 0.349133 27.4629 0.872833C27.4629 1.39653 27.8094 1.74567 28.3292 1.74567H33.2673V6.72082C33.2673 7.24452 33.6139 7.59365 34.1337 7.59365C34.6535 7.59365 35 7.24452 35 6.72082V0H28.3292Z" fill="#515151"/>
<path d="M6.67079 30.3748H1.73267V25.3997C1.73267 24.876 1.38614 24.5269 0.866336 24.5269C0.346534 24.5269 0 24.876 0 25.3997V32.1205H6.67079C7.19059 32.1205 7.53712 31.7714 7.53712 31.2477C7.53712 30.724 7.10395 30.3748 6.67079 30.3748Z" fill="#515151"/>
<path d="M34.0472 24.6138C33.5274 24.6138 33.1809 24.9629 33.1809 25.4866V30.4618H28.2428C27.723 30.4618 27.3765 30.8109 27.3765 31.3346C27.3765 31.8583 27.723 32.2074 28.2428 32.2074H34.9136V25.4866C34.9136 24.9629 34.567 24.6138 34.0472 24.6138Z" fill="#515151"/>
<path d="M0.866336 7.59365C1.38614 7.59365 1.73267 7.24452 1.73267 6.72082V1.74567H6.67079C7.19059 1.74567 7.53712 1.39653 7.53712 0.872833C7.53712 0.349133 7.19059 0 6.67079 0H0V6.72082C0 7.15723 0.346534 7.59365 0.866336 7.59365Z" fill="#515151"/>
</svg>
